<svg width="38" height="54" viewBox="0 0 38 54" fill="none" xmlns="http://www.w3.org/2000/svg">
<path d="M17.0474 52.9105C2.66891 30.6947 0 28.4146 0 20.25C0 9.0662 8.50656 0 19 0C29.4934 0 38 9.0662 38 20.25C38 28.4146 35.3311 30.6947 20.9526 52.9105C20.0091 54.3632 17.9908 54.3631 17.0474 52.9105ZM19 28.6875C23.3723 28.6875 26.9167 24.9099 26.9167 20.25C26.9167 15.5901 23.3723 11.8125 19 11.8125C14.6277 11.8125 11.0833 15.5901 11.0833 20.25C11.0833 24.9099 14.6277 28.6875 19 28.6875Z" fill="black"/>
<path d="M17.0474 52.9105C2.66891 30.6947 0 28.4146 0 20.25C0 9.0662 8.50656 0 19 0C29.4934 0 38 9.0662 38 20.25C38 28.4146 35.3311 30.6947 20.9526 52.9105C20.0091 54.3632 17.9908 54.3631 17.0474 52.9105ZM19 28.6875C23.3723 28.6875 26.9167 24.9099 26.9167 20.25C26.9167 15.5901 23.3723 11.8125 19 11.8125C14.6277 11.8125 11.0833 15.5901 11.0833 20.25C11.0833 24.9099 14.6277 28.6875 19 28.6875Z" fill="black"/>
</svg>
