<svg width="53" height="68" viewBox="0 0 53 68" fill="none" xmlns="http://www.w3.org/2000/svg">
<path d="M10.8435 0.00382383H11.1247C11.2005 0.00138451 11.2898 0 11.3793 0C17.242 0 22.0173 5.92622 22.2098 13.3295L22.2104 13.3519V13.4459C22.215 17.0266 20.5779 21.4935 17.3247 26.7118C15.8409 29.0753 14.3321 31.1894 12.726 33.1767L12.7134 33.1922L11.1363 35.0941L9.55011 33.204C7.91987 31.2066 6.40522 29.1 4.9997 26.8768L4.92046 26.7471C1.67157 21.5463 0.0114977 17.0734 0.0114977 13.4458V13.3519C0.206131 5.92794 4.98178 0.00382383 10.8435 0.00382383ZM11.1225 5.87374H11.0486C10.9875 5.87111 10.9159 5.86946 10.8439 5.86946C7.4857 5.86946 4.74851 9.2543 4.62307 13.49L4.62271 13.5045C4.65275 17.138 8.35792 23.1459 11.1246 26.8939C14.0805 22.8965 17.5805 17.0265 17.6035 13.5047C17.4929 9.258 14.7619 5.86893 11.4091 5.86893C11.3334 5.86893 11.258 5.87064 11.1829 5.87407L11.1938 5.87368L11.1225 5.87374ZM13.3151 14.1503C13.3151 15.6901 12.3344 16.9385 11.1247 16.9385C9.91504 16.9385 8.93436 15.6901 8.93436 14.1503C8.93436 12.6104 9.91504 11.3621 11.1247 11.3621C12.3344 11.3621 13.3151 12.6104 13.3151 14.1503ZM39.7148 67.5077H7.80463C3.49428 67.5077 0 63.0597 0 57.5729C0 52.0861 3.49428 47.6381 7.80463 47.6381H18.7945C20.5327 47.6381 21.9418 45.8444 21.9418 43.6319C21.9418 41.4259 20.5412 39.6365 18.8103 39.6256H8.91137V33.7557H18.8533C23.0717 33.8232 26.4819 38.1343 26.5725 43.486L26.5726 43.4968V43.5585C26.5597 49.0324 23.0864 53.468 18.7917 53.5079H7.80463C6.04097 53.5079 4.61127 55.3279 4.61127 57.5728C4.61127 59.8178 6.04097 61.6376 7.80458 61.6376H39.7148V67.5077ZM39.8301 58.967H35.2188V22.5443H39.8301V58.967ZM35.2188 50.1504V22.9581L53 36.5762L35.2188 50.1504ZM39.8301 33.3419V39.7988L44.0449 36.5704L39.8301 33.3419Z" fill="black"/>
</svg>
